<mxfile host="app.diagrams.net" agent="Mozilla/5.0 (Windows NT 10.0; Win64; x64; rv:143.0) Gecko/20100101 Firefox/143.0" version="28.2.5">
  <diagram name="Wazuh Architecture" id="fU7EJjosR3vMCQV5aWwp">
    <mxGraphModel dx="1884" dy="842" grid="1" gridSize="10" guides="1" tooltips="1" connect="1" arrows="1" fold="1" page="1" pageScale="1" pageWidth="850" pageHeight="1100" math="0" shadow="0">
      <root>
        <mxCell id="0" />
        <mxCell id="1" parent="0" />
        <mxCell id="-pKM9sWvC3ZojLgCimke-1" value="&#xa;  &#xa;    &#xa;      &#xa;        &#xa;        &#xa;&#xa;        &#xa;        &#xa;          &#xa;        &#xa;&#xa;        &#xa;        &#xa;          &#xa;        &#xa;&#xa;        &#xa;        &#xa;          &#xa;        &#xa;&#xa;        &#xa;        &#xa;          &#xa;        &#xa;&#xa;        &#xa;        &#xa;          &#xa;        &#xa;&#xa;        &#xa;        &#xa;          &#xa;        &#xa;&#xa;        &#xa;        &#xa;          &#xa;        &#xa;&#xa;        &#xa;        &#xa;          &#xa;        &#xa;&#xa;        &#xa;        &#xa;          &#xa;        &#xa;&#xa;        &#xa;        &#xa;          &#xa;        &#xa;&#xa;        &#xa;        &#xa;          &#xa;        &#xa;&#xa;        &#xa;        &#xa;          &#xa;        &#xa;&#xa;        &#xa;        &#xa;          &#xa;        &#xa;&#xa;        &#xa;        &#xa;        &#xa;        &#xa;        &#xa;        &#xa;        &#xa;        &#xa;        &#xa;        &#xa;        &#xa;      &#xa;    &#xa;  &#xa;" style="text;whiteSpace=wrap;html=1;" parent="1" vertex="1">
          <mxGeometry width="30" height="1260" as="geometry" />
        </mxCell>
        <mxCell id="bl6T-zuzBdNqoBoGUqZZ-2" value="&lt;font style=&quot;font-size: 23px;&quot; face=&quot;Georgia&quot;&gt;Wazuh Security Monitoring Architecture&lt;/font&gt;" style="text;html=1;strokeColor=none;fillColor=none;align=center;verticalAlign=middle;whiteSpace=wrap;rounded=0;fontSize=20;fontStyle=1" vertex="1" parent="1">
          <mxGeometry x="410" width="600" height="40" as="geometry" />
        </mxCell>
        <mxCell id="bl6T-zuzBdNqoBoGUqZZ-3" value="&lt;h3&gt;&lt;font style=&quot;font-size: 16px;&quot;&gt;Layer 1: Threat Simulation&lt;/font&gt;&lt;/h3&gt;" style="rounded=1;whiteSpace=wrap;html=1;fillColor=#fff2cc;strokeColor=#d6b656;opacity=20;fontSize=14;fontStyle=1;align=left;verticalAlign=top;" vertex="1" parent="1">
          <mxGeometry x="75" y="40" width="1200" height="120" as="geometry" />
        </mxCell>
        <mxCell id="bl6T-zuzBdNqoBoGUqZZ-4" value="&lt;font face=&quot;Georgia&quot;&gt;Atomic Red Team&lt;br&gt;(Attack Simulator)&lt;/font&gt;" style="rounded=1;whiteSpace=wrap;html=1;fillColor=#f8cecc;strokeColor=#b85450;fontSize=14;fontStyle=1;shadow=1;" vertex="1" parent="1">
          <mxGeometry x="620" y="50" width="200" height="70" as="geometry" />
        </mxCell>
        <mxCell id="bl6T-zuzBdNqoBoGUqZZ-5" value="&lt;h3&gt;&lt;span style=&quot;background-color: transparent; color: light-dark(rgb(0, 0, 0), rgb(255, 255, 255));&quot;&gt;&lt;font style=&quot;font-size: 16px;&quot;&gt;Layer 2: Protected Endpoints&lt;/font&gt;&lt;/span&gt;&lt;/h3&gt;" style="rounded=1;whiteSpace=wrap;html=1;fillColor=#dae8fc;strokeColor=#6c8ebf;opacity=20;fontSize=14;fontStyle=1;align=left;verticalAlign=top;" vertex="1" parent="1">
          <mxGeometry x="80" y="170" width="1200" height="140" as="geometry" />
        </mxCell>
        <mxCell id="bl6T-zuzBdNqoBoGUqZZ-6" value="&lt;font style=&quot;font-size: 14px;&quot; face=&quot;Georgia&quot;&gt;Ubuntu Server&lt;br&gt;&lt;br&gt;Wazuh Agent&lt;br&gt;Log Collection&lt;/font&gt;" style="rounded=1;whiteSpace=wrap;html=1;fillColor=#dae8fc;strokeColor=#6c8ebf;fontSize=12;shadow=1;" vertex="1" parent="1">
          <mxGeometry x="200" y="170" width="160" height="90" as="geometry" />
        </mxCell>
        <mxCell id="bl6T-zuzBdNqoBoGUqZZ-7" value="&lt;font face=&quot;Georgia&quot; style=&quot;font-size: 14px;&quot;&gt;Windows Server&lt;br&gt;&lt;br&gt;Wazuh Agent&lt;br&gt;Log Collection&lt;/font&gt;" style="rounded=1;whiteSpace=wrap;html=1;fillColor=#dae8fc;strokeColor=#6c8ebf;fontSize=12;shadow=1;" vertex="1" parent="1">
          <mxGeometry x="1040" y="170" width="160" height="90" as="geometry" />
        </mxCell>
        <mxCell id="bl6T-zuzBdNqoBoGUqZZ-8" value="&lt;font style=&quot;font-size: 14px;&quot; face=&quot;Georgia&quot;&gt;Linux Workstation&lt;br&gt;&lt;br&gt;Wazuh Agent&lt;br&gt;Log Collection&lt;/font&gt;" style="rounded=1;whiteSpace=wrap;html=1;fillColor=#dae8fc;strokeColor=#6c8ebf;fontSize=12;shadow=1;" vertex="1" parent="1">
          <mxGeometry x="640" y="170" width="160" height="90" as="geometry" />
        </mxCell>
        <mxCell id="bl6T-zuzBdNqoBoGUqZZ-10" value="&lt;font style=&quot;font-size: 16px;&quot;&gt;Layer 3: Wazuh Core Components&lt;/font&gt;" style="rounded=1;whiteSpace=wrap;html=1;fillColor=#d5e8d4;strokeColor=#82b366;opacity=20;fontSize=14;fontStyle=1;align=left;verticalAlign=top;" vertex="1" parent="1">
          <mxGeometry x="75" y="460" width="1200" height="180" as="geometry" />
        </mxCell>
        <mxCell id="bl6T-zuzBdNqoBoGUqZZ-11" value="&lt;span style=&quot;font-weight: normal;&quot;&gt;&lt;font face=&quot;Georgia&quot; style=&quot;font-size: 14px;&quot;&gt;Wazuh Manager&lt;br&gt;&lt;br&gt;• Event Processing&lt;br&gt;• Rule Matching&lt;br&gt;• Alert Generation&lt;br&gt;• Log Decoding&lt;/font&gt;&lt;/span&gt;" style="rounded=1;whiteSpace=wrap;html=1;fillColor=#fff2cc;strokeColor=#d6b656;fontSize=12;fontStyle=1;shadow=1;align=center;" vertex="1" parent="1">
          <mxGeometry x="570" y="490" width="280" height="120" as="geometry" />
        </mxCell>
        <mxCell id="bl6T-zuzBdNqoBoGUqZZ-12" value="&lt;font style=&quot;font-weight: normal; font-size: 14px;&quot; face=&quot;Georgia&quot;&gt;Wazuh Indexer&lt;br&gt;(Elasticsearch)&lt;br&gt;&lt;br&gt;• Data Storage&lt;br&gt;• Indexing&lt;br&gt;• Search&lt;/font&gt;" style="rounded=1;whiteSpace=wrap;html=1;fillColor=#ffe6cc;strokeColor=#d79b00;fontSize=12;fontStyle=1;shadow=1;" vertex="1" parent="1">
          <mxGeometry x="190" y="490" width="200" height="120" as="geometry" />
        </mxCell>
        <mxCell id="bl6T-zuzBdNqoBoGUqZZ-13" value="&lt;font style=&quot;font-weight: normal; font-size: 14px;&quot; face=&quot;Georgia&quot;&gt;Wazuh Dashboard&lt;br&gt;(OpenSearch Dashboards)&lt;br&gt;&lt;br&gt;• Visualization&lt;br&gt;• Monitoring&lt;br&gt;• Reporting&lt;/font&gt;" style="rounded=1;whiteSpace=wrap;html=1;fillColor=#f5f5f5;strokeColor=#666666;fontSize=12;fontStyle=1;shadow=1;" vertex="1" parent="1">
          <mxGeometry x="1010" y="490" width="200" height="120" as="geometry" />
        </mxCell>
        <mxCell id="bl6T-zuzBdNqoBoGUqZZ-14" value="&lt;font style=&quot;font-size: 16px;&quot;&gt;Layer 4: Analysis &amp;amp; Response&lt;/font&gt;" style="rounded=1;whiteSpace=wrap;html=1;fillColor=#ffe6cc;strokeColor=#d79b00;opacity=20;fontSize=14;fontStyle=1;align=left;verticalAlign=top;" vertex="1" parent="1">
          <mxGeometry x="75" y="676" width="1200" height="160" as="geometry" />
        </mxCell>
        <mxCell id="bl6T-zuzBdNqoBoGUqZZ-15" value="&lt;font face=&quot;Georgia&quot; style=&quot;font-size: 14px; font-weight: normal;&quot;&gt;Detection Engine&lt;br&gt;&lt;br&gt;• Custom Rules&lt;br&gt;• Compliance Checks&lt;br&gt;• Threat Intelligence&lt;br&gt;• Correlation Rules&lt;/font&gt;" style="rounded=1;whiteSpace=wrap;html=1;fillColor=#ffe6cc;strokeColor=#d79b00;fontSize=12;fontStyle=1;shadow=1;" vertex="1" parent="1">
          <mxGeometry x="180" y="710" width="200" height="110" as="geometry" />
        </mxCell>
        <mxCell id="bl6T-zuzBdNqoBoGUqZZ-16" value="&lt;font face=&quot;Georgia&quot; style=&quot;font-size: 14px; font-weight: normal;&quot;&gt;VirusTotal Integration&lt;br&gt;&lt;br&gt;• File Hash Analysis&lt;br&gt;• Malware Detection&lt;br&gt;• Threat Intelligence&lt;/font&gt;" style="rounded=1;whiteSpace=wrap;html=1;fillColor=#e1d5e7;strokeColor=#9673a6;fontSize=12;fontStyle=1;shadow=1;" vertex="1" parent="1">
          <mxGeometry x="477" y="711" width="200" height="110" as="geometry" />
        </mxCell>
        <mxCell id="bl6T-zuzBdNqoBoGUqZZ-17" value="&lt;span style=&quot;font-weight: normal;&quot;&gt;&lt;font style=&quot;font-size: 14px;&quot; face=&quot;Georgia&quot;&gt;Active Response&lt;br&gt;&lt;br&gt;• Automated Actions&lt;br&gt;• File Quarantine&lt;br&gt;• Process Termination&lt;br&gt;• Firewall Rules&lt;/font&gt;&lt;/span&gt;" style="rounded=1;whiteSpace=wrap;html=1;fillColor=#f8cecc;strokeColor=#b85450;fontSize=12;fontStyle=1;shadow=1;" vertex="1" parent="1">
          <mxGeometry x="780" y="710" width="200" height="110" as="geometry" />
        </mxCell>
        <mxCell id="bl6T-zuzBdNqoBoGUqZZ-18" value="&lt;font face=&quot;Georgia&quot; style=&quot;font-size: 14px; font-weight: normal;&quot;&gt;Notifications&lt;br&gt;&lt;br&gt;• Email Alerts&lt;br&gt;• Slack/Teams&lt;br&gt;• Syslog Forward&lt;br&gt;• Webhook Integration&lt;/font&gt;" style="rounded=1;whiteSpace=wrap;html=1;fillColor=#d5e8d4;strokeColor=#82b366;fontSize=12;fontStyle=1;shadow=1;" vertex="1" parent="1">
          <mxGeometry x="1060" y="701" width="200" height="110" as="geometry" />
        </mxCell>
        <mxCell id="bl6T-zuzBdNqoBoGUqZZ-19" style="edgeStyle=orthogonalEdgeStyle;rounded=0;orthogonalLoop=1;jettySize=auto;html=1;strokeWidth=2;endArrow=block;endFill=1;strokeColor=#b85450;" edge="1" parent="1" source="bl6T-zuzBdNqoBoGUqZZ-4" target="bl6T-zuzBdNqoBoGUqZZ-6">
          <mxGeometry relative="1" as="geometry" />
        </mxCell>
        <mxCell id="bl6T-zuzBdNqoBoGUqZZ-20" value="Simulated Attacks" style="edgeLabel;html=1;align=center;verticalAlign=middle;resizable=0;points=[];fontSize=13;fontStyle=2;fontFamily=Georgia;" vertex="1" connectable="0" parent="bl6T-zuzBdNqoBoGUqZZ-19">
          <mxGeometry x="-0.3" y="1" relative="1" as="geometry">
            <mxPoint x="20" y="-15" as="offset" />
          </mxGeometry>
        </mxCell>
        <mxCell id="bl6T-zuzBdNqoBoGUqZZ-21" style="edgeStyle=orthogonalEdgeStyle;rounded=0;orthogonalLoop=1;jettySize=auto;html=1;strokeWidth=2;endArrow=block;endFill=1;strokeColor=#b85450;" edge="1" parent="1" source="bl6T-zuzBdNqoBoGUqZZ-4" target="bl6T-zuzBdNqoBoGUqZZ-7">
          <mxGeometry relative="1" as="geometry" />
        </mxCell>
        <mxCell id="bl6T-zuzBdNqoBoGUqZZ-22" style="edgeStyle=orthogonalEdgeStyle;rounded=0;orthogonalLoop=1;jettySize=auto;html=1;strokeWidth=2;endArrow=block;endFill=1;strokeColor=#b85450;" edge="1" parent="1" source="bl6T-zuzBdNqoBoGUqZZ-4" target="bl6T-zuzBdNqoBoGUqZZ-8">
          <mxGeometry relative="1" as="geometry" />
        </mxCell>
        <mxCell id="bl6T-zuzBdNqoBoGUqZZ-27" style="edgeStyle=orthogonalEdgeStyle;rounded=0;orthogonalLoop=1;jettySize=auto;html=1;strokeWidth=2;endArrow=block;endFill=1;strokeColor=#d79b00;" edge="1" parent="1" source="bl6T-zuzBdNqoBoGUqZZ-11" target="bl6T-zuzBdNqoBoGUqZZ-12">
          <mxGeometry relative="1" as="geometry" />
        </mxCell>
        <mxCell id="bl6T-zuzBdNqoBoGUqZZ-28" value="Store Alerts" style="edgeLabel;html=1;align=center;verticalAlign=middle;resizable=0;points=[];fontSize=13;fontStyle=2;fontFamily=Georgia;" vertex="1" connectable="0" parent="bl6T-zuzBdNqoBoGUqZZ-27">
          <mxGeometry x="-0.1" relative="1" as="geometry">
            <mxPoint y="-13" as="offset" />
          </mxGeometry>
        </mxCell>
        <mxCell id="bl6T-zuzBdNqoBoGUqZZ-29" style="edgeStyle=orthogonalEdgeStyle;rounded=0;orthogonalLoop=1;jettySize=auto;html=1;strokeWidth=2;endArrow=block;endFill=1;strokeColor=#666666;" edge="1" parent="1" source="bl6T-zuzBdNqoBoGUqZZ-11" target="bl6T-zuzBdNqoBoGUqZZ-13">
          <mxGeometry relative="1" as="geometry" />
        </mxCell>
        <mxCell id="bl6T-zuzBdNqoBoGUqZZ-30" value="Real-time Data" style="edgeLabel;html=1;align=center;verticalAlign=middle;resizable=0;points=[];fontSize=13;fontStyle=2;fontFamily=Georgia;" vertex="1" connectable="0" parent="bl6T-zuzBdNqoBoGUqZZ-29">
          <mxGeometry x="-0.1" relative="1" as="geometry">
            <mxPoint y="-12" as="offset" />
          </mxGeometry>
        </mxCell>
        <mxCell id="bl6T-zuzBdNqoBoGUqZZ-31" style="edgeStyle=orthogonalEdgeStyle;rounded=0;orthogonalLoop=1;jettySize=auto;html=1;strokeWidth=2;endArrow=block;endFill=1;strokeColor=#d79b00;exitX=0.143;exitY=1.003;exitDx=0;exitDy=0;exitPerimeter=0;entryX=0.299;entryY=0.035;entryDx=0;entryDy=0;entryPerimeter=0;" edge="1" parent="1">
          <mxGeometry relative="1" as="geometry">
            <Array as="points">
              <mxPoint x="577" y="650" />
              <mxPoint x="237" y="650" />
            </Array>
            <mxPoint x="577.04" y="610.3599999999999" as="sourcePoint" />
            <mxPoint x="236.79999999999995" y="713.8500000000001" as="targetPoint" />
          </mxGeometry>
        </mxCell>
        <mxCell id="bl6T-zuzBdNqoBoGUqZZ-32" value="&lt;font style=&quot;font-size: 13px;&quot; face=&quot;Georgia&quot;&gt;Event Analysis&lt;/font&gt;" style="edgeLabel;html=1;align=center;verticalAlign=middle;resizable=0;points=[];fontSize=10;fontStyle=2;" vertex="1" connectable="0" parent="bl6T-zuzBdNqoBoGUqZZ-31">
          <mxGeometry x="-0.5" relative="1" as="geometry">
            <mxPoint x="-147" y="-12" as="offset" />
          </mxGeometry>
        </mxCell>
        <mxCell id="bl6T-zuzBdNqoBoGUqZZ-33" style="edgeStyle=orthogonalEdgeStyle;rounded=0;orthogonalLoop=1;jettySize=auto;html=1;strokeWidth=2;endArrow=block;endFill=1;strokeColor=#9673a6;" edge="1" parent="1">
          <mxGeometry relative="1" as="geometry">
            <Array as="points">
              <mxPoint x="680" y="660" />
              <mxPoint x="580" y="660" />
            </Array>
            <mxPoint x="680.0666666666666" y="610" as="sourcePoint" />
            <mxPoint x="580.0666666666666" y="710" as="targetPoint" />
          </mxGeometry>
        </mxCell>
        <mxCell id="bl6T-zuzBdNqoBoGUqZZ-34" value="File Hash Query" style="edgeLabel;html=1;align=center;verticalAlign=middle;resizable=0;points=[];fontSize=13;fontStyle=2;fontFamily=Georgia;" vertex="1" connectable="0" parent="bl6T-zuzBdNqoBoGUqZZ-33">
          <mxGeometry x="-0.3" relative="1" as="geometry">
            <mxPoint x="-30" y="-10" as="offset" />
          </mxGeometry>
        </mxCell>
        <mxCell id="bl6T-zuzBdNqoBoGUqZZ-35" style="edgeStyle=orthogonalEdgeStyle;rounded=0;orthogonalLoop=1;jettySize=auto;html=1;strokeWidth=2;endArrow=block;endFill=1;strokeColor=#b85450;fontFamily=Georgia;" edge="1" parent="1">
          <mxGeometry relative="1" as="geometry">
            <mxPoint x="380" y="750" as="sourcePoint" />
            <mxPoint x="780" y="750" as="targetPoint" />
          </mxGeometry>
        </mxCell>
        <mxCell id="bl6T-zuzBdNqoBoGUqZZ-36" value="&lt;font style=&quot;font-size: 13px;&quot; face=&quot;Georgia&quot;&gt;Trigger Response&lt;/font&gt;" style="edgeLabel;html=1;align=center;verticalAlign=middle;resizable=0;points=[];fontSize=10;fontStyle=2;" vertex="1" connectable="0" parent="bl6T-zuzBdNqoBoGUqZZ-35">
          <mxGeometry x="-0.1" relative="1" as="geometry">
            <mxPoint x="166" y="-15" as="offset" />
          </mxGeometry>
        </mxCell>
        <mxCell id="bl6T-zuzBdNqoBoGUqZZ-37" style="edgeStyle=orthogonalEdgeStyle;rounded=0;orthogonalLoop=1;jettySize=auto;html=1;strokeWidth=2;endArrow=block;endFill=1;strokeColor=#b85450;" edge="1" parent="1">
          <mxGeometry relative="1" as="geometry">
            <mxPoint x="680" y="782" as="sourcePoint" />
            <mxPoint x="780" y="782" as="targetPoint" />
          </mxGeometry>
        </mxCell>
        <mxCell id="bl6T-zuzBdNqoBoGUqZZ-40" style="edgeStyle=orthogonalEdgeStyle;rounded=0;orthogonalLoop=1;jettySize=auto;html=1;strokeWidth=2;endArrow=block;endFill=1;strokeColor=#82b366;entryX=0.5;entryY=0;entryDx=0;entryDy=0;" edge="1" parent="1" target="bl6T-zuzBdNqoBoGUqZZ-18">
          <mxGeometry relative="1" as="geometry">
            <Array as="points">
              <mxPoint x="709" y="661" />
              <mxPoint x="1180" y="661" />
            </Array>
            <mxPoint x="709.0666666666666" y="611" as="sourcePoint" />
            <mxPoint x="1209.0666666666666" y="711" as="targetPoint" />
          </mxGeometry>
        </mxCell>
        <mxCell id="bl6T-zuzBdNqoBoGUqZZ-41" value="Send Alerts" style="edgeLabel;html=1;align=center;verticalAlign=middle;resizable=0;points=[];fontSize=13;fontStyle=2;fontFamily=Georgia;" vertex="1" connectable="0" parent="bl6T-zuzBdNqoBoGUqZZ-40">
          <mxGeometry x="-0.5" relative="1" as="geometry">
            <mxPoint x="50" y="-10" as="offset" />
          </mxGeometry>
        </mxCell>
        <mxCell id="bl6T-zuzBdNqoBoGUqZZ-42" style="edgeStyle=orthogonalEdgeStyle;rounded=0;orthogonalLoop=1;jettySize=auto;html=1;strokeWidth=2;endArrow=block;endFill=1;strokeColor=#666666;entryX=0.5;entryY=1;entryDx=0;entryDy=0;" edge="1" parent="1">
          <mxGeometry relative="1" as="geometry">
            <Array as="points">
              <mxPoint x="281" y="638" />
              <mxPoint x="1081" y="638" />
            </Array>
            <mxPoint x="281.0666666666666" y="598" as="sourcePoint" />
            <mxPoint x="1081" y="598" as="targetPoint" />
          </mxGeometry>
        </mxCell>
        <mxCell id="bl6T-zuzBdNqoBoGUqZZ-43" value="" style="rounded=1;whiteSpace=wrap;html=1;fillColor=#f5f5f5;strokeColor=#666666;opacity=50;" vertex="1" parent="1">
          <mxGeometry x="30" y="880" width="500" height="120" as="geometry" />
        </mxCell>
        <mxCell id="bl6T-zuzBdNqoBoGUqZZ-44" value="Legend" style="text;html=1;strokeColor=none;fillColor=none;align=left;verticalAlign=middle;whiteSpace=wrap;rounded=0;fontSize=14;fontStyle=1" vertex="1" parent="1">
          <mxGeometry x="100" y="890" width="100" height="30" as="geometry" />
        </mxCell>
        <mxCell id="bl6T-zuzBdNqoBoGUqZZ-45" value="" style="rounded=1;whiteSpace=wrap;html=1;fillColor=#6c8ebf;strokeColor=#6c8ebf;" vertex="1" parent="1">
          <mxGeometry x="100" y="930" width="30" height="20" as="geometry" />
        </mxCell>
        <mxCell id="bl6T-zuzBdNqoBoGUqZZ-46" value="Solid Line = Data Flow" style="text;html=1;strokeColor=none;fillColor=none;align=left;verticalAlign=middle;whiteSpace=wrap;rounded=0;fontSize=11" vertex="1" parent="1">
          <mxGeometry x="140" y="925" width="150" height="30" as="geometry" />
        </mxCell>
        <mxCell id="bl6T-zuzBdNqoBoGUqZZ-47" value="" style="rounded=1;whiteSpace=wrap;html=1;fillColor=#b85450;strokeColor=default;dashed=1;" vertex="1" parent="1">
          <mxGeometry x="100" y="960" width="30" height="20" as="geometry" />
        </mxCell>
        <mxCell id="bl6T-zuzBdNqoBoGUqZZ-48" value="Dashed Line = Response Actions" style="text;html=1;strokeColor=none;fillColor=none;align=left;verticalAlign=middle;whiteSpace=wrap;rounded=0;fontSize=11" vertex="1" parent="1">
          <mxGeometry x="140" y="955" width="200" height="30" as="geometry" />
        </mxCell>
        <mxCell id="bl6T-zuzBdNqoBoGUqZZ-49" value="" style="rounded=1;whiteSpace=wrap;html=1;fillColor=#f8cecc;strokeColor=#b85450;" vertex="1" parent="1">
          <mxGeometry x="320" y="930" width="30" height="20" as="geometry" />
        </mxCell>
        <mxCell id="bl6T-zuzBdNqoBoGUqZZ-50" value="Red = Threats/Actions" style="text;html=1;strokeColor=none;fillColor=none;align=left;verticalAlign=middle;whiteSpace=wrap;rounded=0;fontSize=11" vertex="1" parent="1">
          <mxGeometry x="360" y="925" width="150" height="30" as="geometry" />
        </mxCell>
        <mxCell id="bl6T-zuzBdNqoBoGUqZZ-51" value="" style="rounded=1;whiteSpace=wrap;html=1;fillColor=#d5e8d4;strokeColor=#82b366;" vertex="1" parent="1">
          <mxGeometry x="320" y="960" width="30" height="20" as="geometry" />
        </mxCell>
        <mxCell id="bl6T-zuzBdNqoBoGUqZZ-52" value="Green = Monitoring/Alerts" style="text;html=1;strokeColor=none;fillColor=none;align=left;verticalAlign=middle;whiteSpace=wrap;rounded=0;fontSize=11" vertex="1" parent="1">
          <mxGeometry x="360" y="955" width="180" height="30" as="geometry" />
        </mxCell>
        <mxCell id="bl6T-zuzBdNqoBoGUqZZ-55" style="edgeStyle=orthogonalEdgeStyle;rounded=0;orthogonalLoop=1;jettySize=auto;html=1;exitX=0.5;exitY=0;exitDx=0;exitDy=0;entryX=0.5;entryY=1;entryDx=0;entryDy=0;" edge="1" parent="1" source="bl6T-zuzBdNqoBoGUqZZ-53" target="bl6T-zuzBdNqoBoGUqZZ-8">
          <mxGeometry relative="1" as="geometry" />
        </mxCell>
        <mxCell id="bl6T-zuzBdNqoBoGUqZZ-61" value="cllects logs and monitor" style="edgeLabel;html=1;align=center;verticalAlign=middle;resizable=0;points=[];" vertex="1" connectable="0" parent="bl6T-zuzBdNqoBoGUqZZ-55">
          <mxGeometry x="-0.2559" y="-2" relative="1" as="geometry">
            <mxPoint as="offset" />
          </mxGeometry>
        </mxCell>
        <mxCell id="bl6T-zuzBdNqoBoGUqZZ-56" style="edgeStyle=orthogonalEdgeStyle;rounded=0;orthogonalLoop=1;jettySize=auto;html=1;exitX=1;exitY=0.5;exitDx=0;exitDy=0;entryX=0.5;entryY=1;entryDx=0;entryDy=0;" edge="1" parent="1" source="bl6T-zuzBdNqoBoGUqZZ-53" target="bl6T-zuzBdNqoBoGUqZZ-7">
          <mxGeometry relative="1" as="geometry">
            <Array as="points">
              <mxPoint x="1120" y="370" />
            </Array>
          </mxGeometry>
        </mxCell>
        <mxCell id="bl6T-zuzBdNqoBoGUqZZ-62" value="collects logs and monitor" style="edgeLabel;html=1;align=center;verticalAlign=middle;resizable=0;points=[];" vertex="1" connectable="0" parent="bl6T-zuzBdNqoBoGUqZZ-56">
          <mxGeometry x="0.7205" y="1" relative="1" as="geometry">
            <mxPoint as="offset" />
          </mxGeometry>
        </mxCell>
        <mxCell id="bl6T-zuzBdNqoBoGUqZZ-58" style="edgeStyle=orthogonalEdgeStyle;rounded=0;orthogonalLoop=1;jettySize=auto;html=1;exitX=0;exitY=0.5;exitDx=0;exitDy=0;entryX=0.5;entryY=1;entryDx=0;entryDy=0;" edge="1" parent="1" source="bl6T-zuzBdNqoBoGUqZZ-53" target="bl6T-zuzBdNqoBoGUqZZ-6">
          <mxGeometry relative="1" as="geometry" />
        </mxCell>
        <mxCell id="bl6T-zuzBdNqoBoGUqZZ-59" value="Suricata Alerts" style="edgeLabel;html=1;align=center;verticalAlign=middle;resizable=0;points=[];" vertex="1" connectable="0" parent="bl6T-zuzBdNqoBoGUqZZ-58">
          <mxGeometry x="-0.462" relative="1" as="geometry">
            <mxPoint y="-10" as="offset" />
          </mxGeometry>
        </mxCell>
        <mxCell id="bl6T-zuzBdNqoBoGUqZZ-53" value="Suricata( NIDS)" style="rounded=1;whiteSpace=wrap;html=1;" vertex="1" parent="1">
          <mxGeometry x="620" y="340" width="200" height="60" as="geometry" />
        </mxCell>
        <mxCell id="bl6T-zuzBdNqoBoGUqZZ-60" style="edgeStyle=orthogonalEdgeStyle;rounded=0;orthogonalLoop=1;jettySize=auto;html=1;exitX=0.5;exitY=1;exitDx=0;exitDy=0;entryX=0.539;entryY=-0.017;entryDx=0;entryDy=0;entryPerimeter=0;" edge="1" parent="1" source="bl6T-zuzBdNqoBoGUqZZ-53" target="bl6T-zuzBdNqoBoGUqZZ-11">
          <mxGeometry relative="1" as="geometry" />
        </mxCell>
      </root>
    </mxGraphModel>
  </diagram>
</mxfile>
